<?xml version="1.0" encoding="UTF-8" standalone="no"?>
<!-- Creator: CorelDRAW X7 -->

<svg
   xml:space="preserve"
   width="7.0581884in"
   height="6.4449983in"
   version="1.1"
   style="clip-rule:evenodd;fill-rule:evenodd;image-rendering:optimizeQuality;shape-rendering:geometricPrecision;text-rendering:geometricPrecision"
   viewBox="0 0 7058.1884 6444.9983"
   id="svg147"
   sodipodi:docname="lcd-plates.svg"
   inkscape:version="1.3.2 (091e20e, 2023-11-25, custom)"
   xmlns:inkscape="http://www.inkscape.org/namespaces/inkscape"
   xmlns:sodipodi="http://sodipodi.sourceforge.net/DTD/sodipodi-0.dtd"
   xmlns="http://www.w3.org/2000/svg"
   xmlns:svg="http://www.w3.org/2000/svg"><sodipodi:namedview
   id="namedview147"
   pagecolor="#ffffff"
   bordercolor="#000000"
   borderopacity="0.25"
   inkscape:showpageshadow="2"
   inkscape:pageopacity="0.0"
   inkscape:pagecheckerboard="false"
   inkscape:deskcolor="#d1d1d1"
   inkscape:document-units="in"
   inkscape:zoom="0.8828125"
   inkscape:cx="304.70796"
   inkscape:cy="376.63717"
   inkscape:window-width="2240"
   inkscape:window-height="1294"
   inkscape:window-x="-11"
   inkscape:window-y="-11"
   inkscape:window-maximized="1"
   inkscape:current-layer="Capa_x0020_1" />
 <defs
   id="defs1">
  <style
   type="text/css"
   id="style1">
   <![CDATA[
    .str0 {stroke:#373435;stroke-width:7.87402}
    .fil0 {fill:none}
   ]]>
  </style>
 
   
   
   
   
   
   
   
   
   
   
   
   
   
   
   
   
   
   
   
   
  </defs>
 <g
   id="Capa_x0020_1"
   inkscape:label="Capa 1"
   inkscape:groupmode="layer"
   transform="translate(2.9148168e-4)">
  <metadata
   id="CorelCorpID_0Corel-Layer" />
  <g
   id="g23"
   transform="matrix(0,-1,-1,0,16943.967,3510.709)"
   style="stroke:#ff00ff;stroke-width:1;stroke-dasharray:none">
    <rect
   class="fil0 str0"
   transform="matrix(0,1.00401,-1,0,3510.21,9886.28)"
   width="7029"
   height="3194"
   rx="226"
   ry="226"
   id="rect14"
   x="0"
   y="0"
   style="stroke:#ff00ff;stroke-width:0.998001;stroke-dasharray:none" />
    <rect
   class="fil0 str0"
   transform="rotate(90,-4742.715,7244.685)"
   width="3843"
   height="1572"
   id="rect15"
   x="0"
   y="0"
   style="stroke:#ff00ff;stroke-width:1;stroke-dasharray:none" />
    <circle
   class="fil0 str0"
   transform="rotate(90,-4605.545,6399.455)"
   r="321"
   id="circle15"
   cx="0"
   cy="0"
   style="stroke:#ff00ff;stroke-width:1;stroke-dasharray:none" />
    <circle
   class="fil0 str0"
   transform="rotate(90,-4240.215,6790.585)"
   r="258"
   id="circle16"
   cx="0"
   cy="0"
   style="stroke:#ff00ff;stroke-width:1;stroke-dasharray:none" />
    <circle
   class="fil0 str0"
   transform="matrix(0,0.22765,-0.22765,0,3278.7,10122.2)"
   r="258"
   id="circle17"
   cx="0"
   cy="0"
   style="stroke:#ff00ff;stroke-width:4.39271;stroke-dasharray:none" />
    <circle
   class="fil0 str0"
   transform="matrix(0,0.22765,-0.22765,0,549.482,10103.8)"
   r="258"
   id="circle18"
   cx="0"
   cy="0"
   style="stroke:#ff00ff;stroke-width:4.39271;stroke-dasharray:none" />
    <circle
   class="fil0 str0"
   transform="matrix(0,0.22765,-0.22765,0,3278.7,16718.9)"
   r="258"
   id="circle19"
   cx="0"
   cy="0"
   style="stroke:#ff00ff;stroke-width:4.39271;stroke-dasharray:none" />
    <circle
   class="fil0 str0"
   transform="matrix(0,0.22765,-0.22765,0,549.482,16700.5)"
   r="258"
   id="circle20"
   cx="0"
   cy="0"
   style="stroke:#ff00ff;stroke-width:4.39271;stroke-dasharray:none" />
    <rect
   class="fil0 str0"
   transform="matrix(0,1.19445,-1,0,2940.16,10461.9)"
   width="219"
   height="122"
   rx="61"
   ry="61"
   id="rect20"
   x="0"
   y="0"
   style="stroke:#ff00ff;stroke-width:0.914989;stroke-dasharray:none" />
    <rect
   class="fil0 str0"
   transform="matrix(0,1.26848,-1,0,1014.91,10445.7)"
   width="219"
   height="122"
   rx="61"
   ry="61"
   id="rect21"
   x="0"
   y="0"
   style="stroke:#ff00ff;stroke-width:0.887888;stroke-dasharray:none" />
    <rect
   class="fil0 str0"
   transform="matrix(0,1.19445,-1,0,2940.16,16116.2)"
   width="219"
   height="122"
   rx="61"
   ry="61"
   id="rect22"
   x="0"
   y="0"
   style="stroke:#ff00ff;stroke-width:0.914989;stroke-dasharray:none" />
    <rect
   class="fil0 str0"
   transform="matrix(0,1.26848,-1,0,1014.91,16100)"
   width="219"
   height="122"
   rx="61"
   ry="61"
   id="rect23"
   x="0"
   y="0"
   style="stroke:#ff00ff;stroke-width:0.887888;stroke-dasharray:none" />
    <circle
   class="fil0 str0"
   transform="matrix(0,0.450139,-0.450139,0,1101.56,11020.7)"
   r="258"
   id="circle23"
   cx="0"
   cy="0"
   style="stroke:#ff00ff;stroke-width:2.22154;stroke-dasharray:none" />
   </g><g
   id="g117"
   transform="rotate(90,8676.8891,8216.7582)"
   style="stroke:#ff00ff;stroke-width:1;stroke-dasharray:none">
    <rect
   class="fil0 str0"
   transform="matrix(0,1.00401,-1,0,6904.63,9835.96)"
   width="7029"
   height="3194"
   rx="226"
   ry="226"
   id="rect110"
   x="0"
   y="0"
   style="stroke:#ff00ff;stroke-width:0.998001;stroke-dasharray:none" />
    <circle
   class="fil0 str0"
   transform="matrix(0,0.22765,-0.22765,0,6673.12,10071.9)"
   r="258"
   id="circle111"
   cx="0"
   cy="0"
   style="stroke:#ff00ff;stroke-width:4.39271;stroke-dasharray:none" />
    <circle
   class="fil0 str0"
   transform="matrix(0,0.22765,-0.22765,0,3943.9,10053.5)"
   r="258"
   id="circle112"
   cx="0"
   cy="0"
   style="stroke:#ff00ff;stroke-width:4.39271;stroke-dasharray:none" />
    <circle
   class="fil0 str0"
   transform="matrix(0,0.22765,-0.22765,0,6673.12,16668.5)"
   r="258"
   id="circle113"
   cx="0"
   cy="0"
   style="stroke:#ff00ff;stroke-width:4.39271;stroke-dasharray:none" />
    <circle
   class="fil0 str0"
   transform="matrix(0,0.22765,-0.22765,0,3943.9,16650.2)"
   r="258"
   id="circle114"
   cx="0"
   cy="0"
   style="stroke:#ff00ff;stroke-width:4.39271;stroke-dasharray:none" />
    <g
   id="g116"
   style="stroke:#ff00ff;stroke-width:1;stroke-dasharray:none">
     <circle
   class="fil0 str0"
   transform="matrix(0,0.327635,-0.327635,0,4045.84,14917)"
   r="258"
   id="circle115"
   cx="0"
   cy="0"
   style="stroke:#ff00ff;stroke-width:3.05218;stroke-dasharray:none" />
     <circle
   class="fil0 str0"
   transform="matrix(0,0.327635,-0.327635,0,4045.84,11812.6)"
   r="258"
   id="circle116"
   cx="0"
   cy="0"
   style="stroke:#ff00ff;stroke-width:3.05218;stroke-dasharray:none" />
    </g>
   </g>
 </g>
</svg>
